<?xml version="1.0" standalone="no"?><!DOCTYPE svg PUBLIC "-//W3C//DTD SVG 1.1//EN" "http://www.w3.org/Graphics/SVG/1.1/DTD/svg11.dtd"><svg t="1774355868154" class="icon" viewBox="0 0 1024 1024" version="1.1" xmlns="http://www.w3.org/2000/svg" p-id="18154" width="200" height="200" xmlns:xlink="http://www.w3.org/1999/xlink"><path d="M839.632 396.688c36.848 1.584 63.44 9.344 93.152 26.496 40.256 23.232 68.096 62.176 74.848 97.52 8.464 44.272-28.368 77.76-79.616 80.752-3.488 0.048-3.488 0.048-11.024 0.048a46339.472 46339.472 0 0 1-117.76-0.32c-95.296-0.368-190.928-0.896-280.64-1.664l-10.656-0.096c-108.032-0.944-199.408-2.16-268.944-3.68l-3.408-0.256c-20.848-2.688-39.136-7.12-54.512-13.776a601.952 601.952 0 0 1-35.216-16.608l-10.416-5.344c-13.856-7.152-15.6-8.064-21.312-10.928-26.64-11.248-42.8-24.048-49.088-49.76l-43.168-147.52c-8.336-19.52-3.312-42.848 9.312-57.408 10.32-12.704 22.064-21.552 36.768-26.032 30.528-10.432 64-0.64 85.952 24.768 7.952 9.728 45.472 52.096 52.048 59.792 12.16 14.24 22.304 26.848 31.264 39.248l63.232 4.384-93.6-147.04c-18.928-29.76-7.936-73.6 36.016-80.032a340.528 340.528 0 0 1 46.528-6.288l2.56-0.48c2.128-0.416 4.032-0.752 5.952-1.04 23.328-3.6 43.488-0.8 60.48 13.44 39.44 29.856 70.88 53.904 141.488 108.128 67.408 51.76 99.04 75.968 136.032 104 33.808 2.24 140.192 8.608 203.728 9.696z m-612.496-5.456l0.848 0.048a15.616 15.616 0 0 0-0.848-0.048z m403.28 58.88c-5.184 0.544-10.4 0-15.408-1.664a40.912 40.912 0 0 1-6.336-2.704 74.016 74.016 0 0 1-2.976-1.648l-3.312-2.208c-39.456-29.856-70.88-53.92-141.488-108.144a26639.04 26639.04 0 0 0-142.336-108.8c-1.12-0.96-3.936-1.344-10.88-0.272-2.048 0.32-1.28 0.16-8.176 1.504l-2.176 0.432-2.192 0.112c-8 0.432-16.512 1.344-25.072 2.656l104.704 164.496 1.536 2.688c9.056 17.84 6.592 37.296-6.112 50.992a49.104 49.104 0 0 1-31.2 15.2l-2.432 0.208-2.448-0.16-110.56-7.68c-13.984-0.608-26.272-7.68-33.216-18.64-8.48-12.416-19.184-26.016-33.04-42.24-5.84-6.832-44.048-49.968-52.384-60.192-4.672-5.408-11.04-7.232-16.432-5.312l-1.776 0.576c-0.912 0.256-2 0.96-3.808 2.864l43.936 150.272c0.384 1.584 2.976 3.6 12.96 7.744 8.944 4.4 10.144 5.024 25.024 12.704 4.208 2.176 7.12 3.68 10.016 5.136 11.232 5.712 20.544 10.128 31.648 14.944 8.848 3.824 21.008 6.832 35.68 8.832a21652.096 21652.096 0 0 0 276.96 3.712 58919.056 58919.056 0 0 0 397.984 1.984h8.048c9.76-0.688 16.336-3.152 19.36-5.92-3.04-15.936-19.552-39.024-43.728-52.976-20.688-11.952-37.2-16.8-62.672-17.936-77.648-1.36-203.68-9.344-207.68-10.56zM252.288 232.544a10.464 10.464 0 0 0 0.832-0.144l-0.832 0.144zM32 863.888a32 32 0 0 1 0-64h960a32 32 0 1 1 0 64H32z" fill="#437ACF" p-id="18155"></path></svg>